<?xml version="1.0" encoding="UTF-8" standalone="no" ?>
<!DOCTYPE svg PUBLIC "-//W3C//DTD SVG 1.1//EN" "http://www.w3.org/Graphics/SVG/1.1/DTD/svg11.dtd">
<svg xmlns="http://www.w3.org/2000/svg" xmlns:xlink="http://www.w3.org/1999/xlink" version="1.1" width="1080" height="1080" viewBox="0 0 1080 1080" xml:space="preserve">
<desc>Created with Fabric.js 5.2.4</desc>
<defs>
</defs>
<g transform="matrix(1 0 0 1 540 540)" id="ebb051cf-7d3e-4c1f-8460-5b3b85850579"  >
<rect style="stroke: none; stroke-width: 1; stroke-dasharray: none; stroke-linecap: butt; stroke-dashoffset: 0; stroke-linejoin: miter; stroke-miterlimit: 4; fill: rgb(255,255,255); fill-rule: nonzero; opacity: 1; visibility: hidden;" vector-effect="non-scaling-stroke"  x="-540" y="-540" rx="0" ry="0" width="1080" height="1080" />
</g>
<g transform="matrix(1 0 0 1 540 540)" id="57efd301-72cc-4e40-bba4-af4a44e6c891"  >
</g>
<g transform="matrix(2.11 0 0 2.11 540 540)"  >
<path style="stroke: none; stroke-width: 1; stroke-dasharray: none; stroke-linecap: butt; stroke-dashoffset: 0; stroke-linejoin: miter; stroke-miterlimit: 4; fill: rgb(255,255,255); fill-rule: nonzero; opacity: 1;"  transform=" translate(-256, -256)" d="M 256 32 C 132.3 32 32 134.9 32 261.7 C 32 363.2 96.2 449.2 185.2 479.6 C 186.4483462958253 479.8711577833917 187.7225544680893 480.0052849594195 189 480 C 197.3 480 200.5 473.9 200.5 468.6 C 200.5 463.1 200.3 448.70000000000005 200.2 429.5 C 192.79040644040936 431.2370316633348 185.21026042590574 432.14262432878434 177.6 432.2 C 134.5 432.2 124.69999999999999 398.7 124.69999999999999 398.7 C 114.49999999999999 372.2 99.79999999999998 365.09999999999997 99.79999999999998 365.09999999999997 C 80.29999999999998 351.4 99.69999999999999 350.99999999999994 101.19999999999999 350.99999999999994 L 101.29999999999998 350.99999999999994 C 123.79999999999998 352.99999999999994 135.59999999999997 374.79999999999995 135.59999999999997 374.79999999999995 C 146.79999999999995 394.4 161.79999999999995 399.9 175.19999999999996 399.9 C 184.0603586022346 399.722820885762 192.78365377260187 397.67829858020724 200.79999999999995 393.9 C 202.79999999999995 379.09999999999997 208.59999999999997 369 214.99999999999994 363.2 C 165.29999999999995 357.4 112.99999999999994 337.7 112.99999999999994 249.7 C 112.99999999999994 224.6 121.69999999999995 204.1 135.99999999999994 188.1 C 133.69999999999993 182.29999999999998 125.99999999999994 158.9 138.19999999999993 127.3 C 139.8364592421036 126.90841905121202 141.51840510946505 126.74022446447589 143.19999999999993 126.8 C 151.29999999999993 126.8 169.59999999999994 129.9 199.79999999999993 150.9 C 236.4953947169927 140.63311389281637 275.3046052830071 140.63311389281637 311.9999999999999 150.9 C 342.19999999999993 129.9 360.49999999999994 126.80000000000001 368.59999999999997 126.80000000000001 C 370.28159489053485 126.7402244644759 371.9635407578963 126.90841905121204 373.59999999999997 127.30000000000001 C 385.79999999999995 158.9 378.09999999999997 182.3 375.79999999999995 188.10000000000002 C 390.09999999999997 204.20000000000002 398.79999999999995 224.70000000000002 398.79999999999995 249.70000000000002 C 398.79999999999995 337.90000000000003 346.4 357.3 296.49999999999994 363 C 304.49999999999994 370.1 311.69999999999993 384.1 311.69999999999993 405.5 C 311.69999999999993 436.2 311.3999999999999 461 311.3999999999999 468.5 C 311.3999999999999 473.9 314.49999999999994 480 322.7999999999999 480 C 324.14360466849797 480.0059034932656 325.48417037310884 479.8718469228045 326.7999999999999 479.6 C 415.9 449.2 480 363.1 480 261.7 C 480 134.9 379.7 32 256 32 z" stroke-linecap="round" />
</g>
</svg>